# xmcd
# 
# Track frame offsets:
#     150
#     16081
#     35665
#     58101
#     69795
#     86402
#     104590
#     122535
#     152736
#     170978
#     187932
# 
# Disc length: 2702
# 
# Revision: 2
# Processed by: cddbd v1.5.2PL0 Copyright (c) Steve Scherf et al.
# Submitted via: fre:ac v1.0.27
# 
DISCID=890a8c0b
DTITLE=The Charles Walker Band - Used And Defiant
DYEAR=2009
DGENRE=Blues
TTITLE0=Life Is Now
TTITLE1=Stones In My Passway
TTITLE2=One
TTITLE3=Bump It
TTITLE4=Funky Sexy
TTITLE5=Wore Out
TTITLE6=Exquisite Soul
TTITLE7=Stomped All Over
TTITLE8=Arrogance
TTITLE9=Boogie Woogie
TTITLE10=Used And Defiant
EXTD=
EXTT0=
EXTT1=
EXTT2=
EXTT3=
EXTT4=
EXTT5=
EXTT6=
EXTT7=
EXTT8=
EXTT9=
EXTT10=
PLAYORDER=
